<?xml version="1.0" standalone="no"?>
<!DOCTYPE svg PUBLIC "-//W3C//DTD SVG 20010904//EN"
 "http://www.w3.org/TR/2001/REC-SVG-20010904/DTD/svg10.dtd">
<svg version="1.0" xmlns="http://www.w3.org/2000/svg"
 width="180.000000pt" height="180.000000pt" viewBox="0 0 180.000000 180.000000"
 preserveAspectRatio="xMidYMid meet">

<g transform="translate(0.000000,180.000000) scale(0.100000,-0.100000)"
fill="#000000" stroke="none">
<path d="M0 900 l0 -900 900 0 900 0 0 900 0 900 -900 0 -900 0 0 -900z m540
490 c0 -29 -1 -30 -50 -30 l-50 0 0 -90 0 -90 -35 0 -35 0 0 120 0 120 85 0
85 0 0 -30z m900 -60 l0 -90 -35 0 -35 0 0 60 0 60 -50 0 c-49 0 -50 1 -50 30
l0 30 85 0 85 0 0 -90z m-932 -206 c17 -5 22 -14 22 -40 0 -19 -2 -34 -4 -34
-1 0 -17 5 -35 11 -17 6 -39 8 -49 4 -13 -5 -5 -12 35 -30 38 -17 54 -30 59
-49 19 -77 -56 -128 -140 -96 -21 8 -26 16 -26 44 l0 34 40 -15 c31 -12 44
-13 52 -5 9 9 2 16 -28 28 -56 23 -74 42 -74 80 0 58 68 89 148 68z m202 -24
c0 -28 -2 -30 -40 -30 -29 0 -40 -4 -40 -15 0 -10 11 -15 35 -15 32 0 35 -2
35 -30 0 -28 -3 -30 -35 -30 -24 0 -35 -5 -35 -15 0 -11 12 -15 45 -15 43 0
45 -1 45 -30 l0 -30 -85 0 -85 0 0 113 c0 63 3 117 7 120 3 4 39 7 80 7 l73 0
0 -30z m180 0 c0 -28 -2 -30 -40 -30 -29 0 -40 -4 -40 -15 0 -10 11 -15 35
-15 32 0 35 -2 35 -30 0 -28 -3 -30 -35 -30 -24 0 -35 -5 -35 -15 0 -11 12
-15 45 -15 43 0 45 -1 45 -30 l0 -30 -85 0 -85 0 0 113 c0 63 3 117 7 120 3 4
39 7 80 7 l73 0 0 -30z m153 21 c76 -18 111 -82 87 -156 -18 -54 -59 -75 -147
-75 l-73 0 0 113 c0 63 3 117 7 120 9 10 81 8 126 -2z m207 -211 l0 -40 40 0
c38 0 40 -2 40 -30 0 -28 -2 -30 -40 -30 l-40 0 0 -90 0 -90 -35 0 -35 0 0 90
0 90 -35 0 c-32 0 -35 2 -35 30 0 28 3 30 35 30 34 0 35 1 35 40 0 39 1 40 35
40 34 0 35 -1 35 -40z m-437 -41 c34 -9 37 -13 37 -46 0 -29 -3 -34 -17 -28
-45 17 -84 17 -103 0 -27 -25 -26 -70 2 -89 26 -18 48 -21 48 -6 0 6 -7 10
-15 10 -10 0 -15 10 -15 30 0 29 1 30 50 30 l50 0 0 -64 c0 -72 -4 -76 -76
-76 -86 0 -134 44 -134 121 0 56 33 104 83 118 43 12 46 12 90 0z m-373 -89
l0 -90 50 0 c49 0 50 -1 50 -30 l0 -30 -85 0 -85 0 0 120 0 120 35 0 35 0 0
-90z m180 -30 l0 -120 -35 0 -35 0 0 120 0 120 35 0 35 0 0 -120z m330 80 l0
-40 40 0 40 0 0 40 c0 39 1 40 35 40 l35 0 0 -120 0 -120 -34 0 c-34 0 -35 1
-38 48 -3 47 -3 47 -40 50 l-38 3 0 -50 0 -51 -35 0 -35 0 0 120 0 120 35 0
c34 0 35 -1 35 -40z m490 -80 l0 -120 -85 0 -85 0 0 30 c0 29 1 30 50 30 l50
0 0 90 0 90 35 0 35 0 0 -120z m-998 -190 c23 -33 45 -60 50 -60 4 0 26 27 48
60 22 33 45 60 50 60 6 0 10 -50 10 -120 0 -73 -4 -120 -10 -120 -6 0 -10 39
-10 97 l0 97 -42 -62 c-24 -34 -45 -62 -48 -62 -3 0 -24 28 -47 62 l-43 62 0
-97 c0 -58 -4 -97 -10 -97 -6 0 -10 47 -10 120 0 70 4 120 10 120 5 0 28 -27
52 -60z m346 48 c-3 -8 -27 -14 -62 -16 l-57 -3 3 -37 c3 -37 4 -37 51 -40 63
-4 61 -22 -3 -22 l-50 0 0 -45 0 -45 60 0 c33 0 60 -4 60 -10 0 -6 -30 -10
-70 -10 l-70 0 0 120 0 120 71 0 c52 0 70 -3 67 -12z m168 -4 c69 -33 87 -128
35 -186 -26 -30 -35 -33 -100 -36 l-71 -4 0 121 0 121 51 0 c28 0 66 -7 85
-16z m124 -104 c0 -100 -2 -120 -15 -120 -12 0 -15 20 -15 120 0 100 3 120 15
120 13 0 15 -20 15 -120z m190 -2 c36 -86 45 -118 35 -118 -8 0 -21 16 -29 35
-15 34 -17 35 -70 35 -53 0 -55 -1 -67 -35 -7 -19 -19 -35 -27 -35 -16 0 -18
-5 41 138 26 64 47 101 55 100 8 -2 36 -56 62 -120z"/>
<path d="M990 1005 c0 -43 3 -55 16 -55 33 0 54 20 54 53 0 39 -15 57 -47 57
-21 0 -23 -4 -23 -55z"/>
<path d="M850 494 l0 -97 46 6 c79 9 122 73 90 136 -20 38 -44 51 -95 51 l-41
0 0 -96z"/>
<path d="M1183 525 l-21 -55 44 0 c24 0 44 3 43 8 0 4 -10 29 -22 55 l-22 48
-22 -56z"/>
</g>
</svg>
